<svg xmlns="http://www.w3.org/2000/svg" data-name="Layer 1" viewBox="0 0 512 512"><g data-name="&lt;Group&gt;"><path d="M287.445,402.555C368.256,402.555,434,336.811,434,256S368.256,109.445,287.445,109.445,140.889,175.189,140.889,256,206.634,402.555,287.445,402.555Zm0-277.11C359.433,125.445,418,184.012,418,256S359.433,386.555,287.445,386.555,156.889,327.988,156.889,256,215.456,125.445,287.445,125.445Z" data-name="&lt;Compound Path&gt;"/><path d="M220.825,254.224a63.067,63.067,0,1,0,63.067-63.067A63.137,63.137,0,0,0,220.825,254.224Zm110.134,0a47.067,47.067,0,1,1-47.067-47.067A47.12,47.12,0,0,1,330.959,254.224Z" data-name="&lt;Compound Path&gt;"/><path d="M189.741 264h0a8 8 0 0 0 8-8 88.1 88.1 0 0 1 87.928-87.927 8.039 8.039 0 0 0 0-16.077h0c-57.269 0-103.887 46.688-103.919 103.957A8.033 8.033 0 0 0 189.741 264zM277.668 351.966a8.033 8.033 0 0 0 8 8.034h0c57.269 0 103.887-46.688 103.918-103.957a8.032 8.032 0 0 0-8-8.043h0a8 8 0 0 0-8 8 88.112 88.112 0 0 1-87.927 87.946A8.017 8.017 0 0 0 277.668 351.966z" data-name="&lt;Path&gt;"/><path d="M259.981,254.224a23.911,23.911,0,1,0,23.911-23.911A23.938,23.938,0,0,0,259.981,254.224Zm31.821,0a7.911,7.911,0,1,1-7.91-7.911A7.919,7.919,0,0,1,291.8,254.224Z" data-name="&lt;Compound Path&gt;"/><path d="M44,434H468a8,8,0,0,0,8-8V86a8,8,0,0,0-8-8H44a8,8,0,0,0-8,8V426A8,8,0,0,0,44,434Zm416-16H114V94H460ZM52,94H98V418H52Z" data-name="&lt;Compound Path&gt;"/></g></svg>