<svg xmlns="http://www.w3.org/2000/svg" data-name="Layer 1" viewBox="0 0 512 512"><path d="M505.38,142.4A22.51,22.51,0,0,0,479.64,138L462.1,120.44l6.32-6.33a22.64,22.64,0,0,0,0-32L430,43.63a22.57,22.57,0,0,0-32,0L391.67,50,374.12,32.38A22.58,22.58,0,0,0,337.79,6.63h0A22.59,22.59,0,0,0,363.53,43l17.54,17.57L366,75.64h0l-17,17L331.42,75.12a22.59,22.59,0,0,0-36.34-25.75h0a22.61,22.61,0,0,0,16,38.6,22.41,22.41,0,0,0,9.75-2.23L339.07,104a34.89,34.89,0,0,0-4.83,13.79l-.05.44a19.89,19.89,0,0,1-5.63,11.52l-93,93.08-3.16-3.16a65.26,65.26,0,0,0-105.88,19.79,25.41,25.41,0,0,1-10.61,11.83l-72,41.55A87.85,87.85,0,0,0,25.7,431l55.21,55.27A87,87,0,0,0,142.72,512a90.46,90.46,0,0,0,11.69-.77A87.09,87.09,0,0,0,219,468L260.46,396a25.38,25.38,0,0,1,11.81-10.62,65.38,65.38,0,0,0,19.78-106l-3.17-3.17,92.67-92.77a19.82,19.82,0,0,1,12.08-5.7A34.73,34.73,0,0,0,408,173l18.32,18.35a22.59,22.59,0,0,0,36.34,25.75h0a22.64,22.64,0,0,0,0-32,22.54,22.54,0,0,0-25.74-4.4L419.4,163.19l32.1-32.14,17.55,17.57A22.59,22.59,0,0,0,489.4,181a22.39,22.39,0,0,0,16-6.63h0A22.64,22.64,0,0,0,505.38,142.4ZM359.14,28a7.58,7.58,0,0,1-10.74,0,7.62,7.62,0,0,1,0-10.77h0a7.58,7.58,0,0,1,10.74,0A7.64,7.64,0,0,1,359.14,28Zm-42.7,42.75A7.61,7.61,0,0,1,305.7,60h0a7.6,7.6,0,0,1,10.74,0A7.65,7.65,0,0,1,316.44,70.75Zm124.89,125a7.58,7.58,0,0,1,10.74,0,7.62,7.62,0,0,1,0,10.77h0a7.58,7.58,0,0,1-10.74,0A7.62,7.62,0,0,1,441.33,195.75ZM333.86,145.67l10.75,10.76L221.38,279.79a50.77,50.77,0,0,0-14.1-7.41ZM142.65,403.39a7.28,7.28,0,0,1,0,10.26,7.22,7.22,0,0,1-10.22,0L98.27,379.46a7.28,7.28,0,0,1,0-10.26,7.22,7.22,0,0,1,10.22,0Zm-22.38-43.63,22-22.07a50.79,50.79,0,0,0,7.34,14l-18.72,18.74ZM141.48,381l18.7-18.73A50.88,50.88,0,0,0,174,369.59l-21.94,22Zm23.62-34.25a36.44,36.44,0,0,1,0-51.43,36.29,36.29,0,0,1,51.36,0,36.34,36.34,0,1,1-51.36,51.43Zm130.21-11.93a49.67,49.67,0,0,1-29.11,36.79,40.32,40.32,0,0,0-18.74,16.86L206,460.55A72.68,72.68,0,0,1,91.52,475.67L36.31,420.4A72.87,72.87,0,0,1,51.42,305.83l72-41.55a40.27,40.27,0,0,0,16.84-18.76,50.26,50.26,0,0,1,81.55-15.25l3.16,3.17-36.23,36.28a51.25,51.25,0,0,0-49.21,49.44l-33,33.16a23.18,23.18,0,0,0-3.13-.24,22,22,0,0,0-15.72,6.52,22.29,22.29,0,0,0,0,31.46l34.16,34.19a22.2,22.2,0,0,0,37.69-18.86l32.92-33A51.23,51.23,0,0,0,242,323.09l36.26-36.29,3.16,3.16A49.72,49.72,0,0,1,295.31,334.82Zm-55.95-30.29A50.89,50.89,0,0,0,232,290.41L355.21,167,366,177.8ZM404.28,157.09a19.77,19.77,0,0,1-12.07,5.7,34.68,34.68,0,0,0-15,5.06l-33.35-33.38a35.05,35.05,0,0,0,5.19-14.38l.05-.44a20,20,0,0,1,5.63-11.52l16.56-16.57,49.22,49.27Zm53.53-53.58-26.68,26.71L381.91,81,408.6,54.23a7.58,7.58,0,0,1,10.74,0l38.47,38.51A7.62,7.62,0,0,1,457.81,103.51Zm37,60.26h0a7.58,7.58,0,0,1-10.74,0A7.64,7.64,0,0,1,484,153a7.58,7.58,0,0,1,10.74,0A7.62,7.62,0,0,1,494.77,163.77Z"/></svg>