<svg xmlns="http://www.w3.org/2000/svg" viewBox="0 0 32 32"><path d="M26.402 11.439c1.643-2.339 1.434-5.592-.655-7.682A5.96 5.96 0 0 0 21.505 2a5.955 5.955 0 0 0-3.448 1.094l-.066-.066a.5.5 0 0 0-.707.707l.001.001-.024.021a5.95 5.95 0 0 0-1.73 3.941l-8.387 10.97c-.374.49-.383 1.143-.086 1.657l-.403.403a1.488 1.488 0 0 0-.269 1.717L5.241 23.59a2.552 2.552 0 0 0 0 3.602c.497.496 1.148.744 1.801.744s1.305-.248 1.802-.744l1.896-1.896.002-.003.094-.094a1.547 1.547 0 1 1 2.188 2.188l-1.761 1.761a.5.5 0 1 0 .708.706l1.761-1.761c.48-.48.745-1.12.745-1.801s-.265-1.32-.745-1.801c-.964-.964-2.641-.962-3.603 0l-1.896 1.896-.002.003-.094.094a1.552 1.552 0 0 1-2.188 0 1.55 1.55 0 0 1 0-2.188l1.153-1.153c.196.089.404.143.615.143.384 0 .768-.146 1.061-.438l.407-.407c.231.134.48.227.742.227.32 0 .642-.102.91-.308l10.97-8.388a5.958 5.958 0 0 0 3.941-1.731c.008-.008.012-.017.02-.024l.003.003a.498.498 0 0 0 .708 0 .5.5 0 0 0 0-.707l-.077-.074zM8.069 22.143a.497.497 0 0 1-.648.039c-.01-.012-.014-.027-.026-.039-.018-.018-.04-.025-.059-.039a.496.496 0 0 1 .026-.669l.353-.353.354.354.354.354-.354.353zm12.024-8.12l-9.865 7.544a.501.501 0 0 1-.657-.044l-.795-.795-.707-.708-.088-.088a.5.5 0 0 1-.043-.657l7.543-9.865v.003l.77-1.009 4.849 4.848-1.01.771h.003zm4.947-2.488a4.967 4.967 0 0 1-2.831 1.412l-5.651-5.651a4.953 4.953 0 0 1 1.411-2.831c.008-.008.017-.013.025-.02l7.066 7.066c-.008.008-.012.017-.02.024zm.652-.806l-6.915-6.915A4.957 4.957 0 0 1 21.505 3c1.335 0 2.591.521 3.535 1.465a5.007 5.007 0 0 1 .652 6.264zM14.434 12.95l-1.414 1.414a1.501 1.501 0 0 0 0 2.121c.292.292.677.438 1.061.438s.769-.146 1.061-.438l1.414-1.414c.283-.283.439-.661.439-1.062s-.156-.777-.439-1.06a1.505 1.505 0 0 0-2.122.001zm1.414 1.414l-1.414 1.414a.512.512 0 0 1-.707 0 .5.5 0 0 1 0-.708l1.414-1.414a.5.5 0 1 1 .707.708z"/></svg>